<svg width="171" height="114" viewBox="0 0 171 114" fill="none" xmlns="http://www.w3.org/2000/svg">
<path d="M68.0854 9.74187C58.6104 15.1197 50.7083 19.616 50.5585 19.8364C50.4087 20.0127 56.4757 23.6273 64.0408 27.8591C77.4856 35.3969 77.8601 35.5732 78.8712 34.9561C79.4704 34.6035 80.0322 34.3831 80.1071 34.5153C80.182 34.6035 78.5716 35.6173 76.5118 36.7634L72.8042 38.8352L58.91 30.9007L45.0533 22.922L27.4515 32.7521C17.7892 38.1299 9.84965 42.6262 9.84965 42.7584C9.84965 42.8907 15.9916 46.4171 23.5191 50.6489C31.0467 54.8807 37.1886 58.4953 37.1886 58.6275C37.1886 58.7598 28.7997 63.5646 18.5757 69.3392C8.31417 75.0697 -0.0373252 79.9186 0.000125465 80.0949C0.0375761 80.4475 58.9849 113.596 60.2957 113.993C60.8575 114.169 66.887 110.996 81.1557 102.973L101.229 91.6882L113.588 98.697L125.947 105.706L148.455 93.0547C160.813 86.0899 171 80.2712 171 80.0949C171.037 79.9186 162.686 75.0697 152.462 69.3392C142.2 63.5646 133.811 58.7598 133.811 58.6275C133.811 58.4953 135.459 57.4373 137.444 56.2472C140.028 54.7484 140.927 54.0431 140.552 53.7786C138.68 52.5444 98.5328 29.975 98.2332 29.975C98.0085 29.975 96.1734 30.9448 94.1511 32.1349L90.4809 34.339L88.1216 33.0166C86.7733 32.2672 85.4251 31.8264 84.9757 31.9586C84.5263 32.0909 85.2004 31.606 86.4363 30.9007C87.6721 30.2395 94.0762 26.6248 100.668 22.922C107.259 19.2633 112.764 16.0895 112.914 15.9573C113.139 15.6928 86.0992 0 85.5 0C85.3876 0 77.5605 4.36401 68.0854 9.74187ZM97.2595 46.329C104.712 50.5167 110.854 53.955 110.929 54.0431C111.004 54.1313 109.993 54.7925 108.682 55.4978C107.371 56.2031 100.967 59.8177 94.4882 63.4764C88.0092 67.1792 81.5677 70.7938 80.2195 71.4991L77.7477 72.8216L72.9166 70.0885L68.0854 67.3555L69.3962 66.5621C70.1078 66.1213 76.2871 62.6389 83.0657 58.8479C89.8817 55.0129 95.5368 51.7509 95.6866 51.6187C95.7989 51.4864 91.979 49.1501 87.1478 46.5053C82.3541 43.8164 78.3844 41.5242 78.3844 41.3919C78.3844 41.0393 82.504 38.8793 83.2155 38.8352C83.5151 38.7911 89.8068 42.1854 97.2595 46.329ZM121.228 59.95C125.834 62.5066 126.022 62.5507 127.07 61.9336C128.156 61.2724 128.381 61.4046 144.485 70.4853C153.473 75.5546 160.776 79.8745 160.738 80.0508C160.738 80.2712 157.443 82.2549 153.436 84.503L146.17 88.5143L127.52 77.9349C117.296 72.1163 107.633 66.6502 106.098 65.7686L103.289 64.2258L109.281 60.7875C112.577 58.892 115.535 57.3492 115.872 57.3492C116.21 57.3051 118.606 58.4953 121.228 59.95ZM51.8693 66.6062C60.3706 71.3669 60.6328 71.4551 61.9435 70.9702C63.2918 70.4412 63.5539 70.5734 75.0513 76.9652C81.5302 80.5798 88.8706 84.7234 91.4172 86.1781L96.0236 88.8229L78.272 98.8733L60.5579 108.88L35.3536 94.6416C21.4968 86.7952 10.1493 80.2271 10.1867 80.0508C10.1867 79.6541 41.9449 61.8013 42.6939 61.7573C42.9186 61.7132 47.0382 63.9172 51.8693 66.6062ZM119.393 79.4337C131.04 86.0458 140.552 91.5559 140.552 91.6882C140.552 91.8204 137.257 93.804 133.25 96.0522L125.947 100.152L104.6 88.1176C92.8778 81.4614 83.2904 75.9513 83.2904 75.8191C83.2904 75.5986 97.4468 67.5319 97.9336 67.4878C98.0834 67.4437 107.746 72.8216 119.393 79.4337Z" fill="#E1CDB5"/>
</svg>
